<mxfile host="app.diagrams.net" modified="2021-07-22T10:11:51.074Z" agent="5.0 (Windows NT 10.0; Win64; x64) AppleWebKit/537.36 (KHTML, like Gecko) Chrome/91.0.4472.164 Safari/537.36 Edg/91.0.864.71" etag="SC5sezr28CpF3Z2Jbxv6" version="14.8.6" type="github">
  <diagram name="Page-1" id="58cdce13-f638-feb5-8d6f-7d28b1aa9fa0">
    <mxGraphModel dx="1038" dy="617" grid="1" gridSize="10" guides="1" tooltips="1" connect="1" arrows="1" fold="1" page="1" pageScale="1" pageWidth="1100" pageHeight="850" background="none" math="0" shadow="0">
      <root>
        <mxCell id="0" />
        <mxCell id="1" parent="0" />
        <mxCell id="d7tN0gDncD4IV3u5tJZm-1" value="&lt;font size=&quot;1&quot;&gt;&lt;b&gt;&lt;u style=&quot;font-size: 20px&quot;&gt;Read Sensors&lt;/u&gt;&lt;/b&gt;&lt;/font&gt;&lt;br&gt;(S1, S2, S3, S4, S5)" style="ellipse;whiteSpace=wrap;html=1;aspect=fixed;" vertex="1" parent="1">
          <mxGeometry x="475" y="250" width="150" height="150" as="geometry" />
        </mxCell>
        <mxCell id="d7tN0gDncD4IV3u5tJZm-2" value="&lt;b&gt;&lt;u&gt;&lt;font style=&quot;font-size: 15px&quot;&gt;Go LEFT&lt;/font&gt;&lt;/u&gt;&lt;/b&gt;" style="ellipse;whiteSpace=wrap;html=1;aspect=fixed;" vertex="1" parent="1">
          <mxGeometry x="765" y="120" width="90" height="90" as="geometry" />
        </mxCell>
        <mxCell id="d7tN0gDncD4IV3u5tJZm-3" value="&lt;b&gt;&lt;u&gt;&lt;font style=&quot;font-size: 15px&quot;&gt;Go RIGHT&lt;/font&gt;&lt;/u&gt;&lt;/b&gt;" style="ellipse;whiteSpace=wrap;html=1;aspect=fixed;" vertex="1" parent="1">
          <mxGeometry x="280" y="110" width="90" height="90" as="geometry" />
        </mxCell>
        <mxCell id="d7tN0gDncD4IV3u5tJZm-4" value="&lt;b&gt;&lt;u&gt;&lt;font style=&quot;font-size: 15px&quot;&gt;Go Foward&lt;/font&gt;&lt;/u&gt;&lt;/b&gt;" style="ellipse;whiteSpace=wrap;html=1;aspect=fixed;" vertex="1" parent="1">
          <mxGeometry x="270" y="490" width="90" height="90" as="geometry" />
        </mxCell>
        <mxCell id="d7tN0gDncD4IV3u5tJZm-5" value="&lt;span style=&quot;font-size: 13px&quot;&gt;&lt;b&gt;&lt;u&gt;Tăng biến đếm và kiểm tra điều kiện dừng&lt;/u&gt;&lt;/b&gt;&lt;/span&gt;" style="ellipse;whiteSpace=wrap;html=1;aspect=fixed;" vertex="1" parent="1">
          <mxGeometry x="720" y="500" width="120" height="120" as="geometry" />
        </mxCell>
        <mxCell id="d7tN0gDncD4IV3u5tJZm-12" value="" style="endArrow=classic;html=1;exitX=0.968;exitY=0.276;exitDx=0;exitDy=0;entryX=0;entryY=1;entryDx=0;entryDy=0;exitPerimeter=0;" edge="1" parent="1" source="d7tN0gDncD4IV3u5tJZm-1" target="d7tN0gDncD4IV3u5tJZm-2">
          <mxGeometry width="50" height="50" relative="1" as="geometry">
            <mxPoint x="610" y="260" as="sourcePoint" />
            <mxPoint x="660" y="210" as="targetPoint" />
          </mxGeometry>
        </mxCell>
        <mxCell id="d7tN0gDncD4IV3u5tJZm-13" value="" style="endArrow=classic;html=1;exitX=0.038;exitY=0.642;exitDx=0;exitDy=0;exitPerimeter=0;entryX=1;entryY=0;entryDx=0;entryDy=0;" edge="1" parent="1" source="d7tN0gDncD4IV3u5tJZm-2" target="d7tN0gDncD4IV3u5tJZm-1">
          <mxGeometry width="50" height="50" relative="1" as="geometry">
            <mxPoint x="500" y="410" as="sourcePoint" />
            <mxPoint x="600" y="290" as="targetPoint" />
          </mxGeometry>
        </mxCell>
        <mxCell id="d7tN0gDncD4IV3u5tJZm-14" value="S1 = 0 and S5 = 1" style="text;html=1;strokeColor=none;fillColor=none;align=center;verticalAlign=middle;whiteSpace=wrap;rounded=0;rotation=-30;" vertex="1" parent="1">
          <mxGeometry x="660" y="240" width="100" height="20" as="geometry" />
        </mxCell>
        <mxCell id="d7tN0gDncD4IV3u5tJZm-15" value="" style="endArrow=classic;html=1;exitX=0.008;exitY=0.372;exitDx=0;exitDy=0;exitPerimeter=0;entryX=1;entryY=1;entryDx=0;entryDy=0;" edge="1" parent="1" source="d7tN0gDncD4IV3u5tJZm-1" target="d7tN0gDncD4IV3u5tJZm-3">
          <mxGeometry width="50" height="50" relative="1" as="geometry">
            <mxPoint x="500" y="390" as="sourcePoint" />
            <mxPoint x="550" y="340" as="targetPoint" />
          </mxGeometry>
        </mxCell>
        <mxCell id="d7tN0gDncD4IV3u5tJZm-16" value="" style="endArrow=classic;html=1;exitX=1;exitY=0.5;exitDx=0;exitDy=0;entryX=0;entryY=0;entryDx=0;entryDy=0;" edge="1" parent="1" source="d7tN0gDncD4IV3u5tJZm-3" target="d7tN0gDncD4IV3u5tJZm-1">
          <mxGeometry width="50" height="50" relative="1" as="geometry">
            <mxPoint x="500" y="390" as="sourcePoint" />
            <mxPoint x="550" y="340" as="targetPoint" />
          </mxGeometry>
        </mxCell>
        <mxCell id="d7tN0gDncD4IV3u5tJZm-17" value="S5 = 0 and S1 = 1" style="text;html=1;strokeColor=none;fillColor=none;align=center;verticalAlign=middle;whiteSpace=wrap;rounded=0;rotation=45;" vertex="1" parent="1">
          <mxGeometry x="350" y="240" width="100" height="20" as="geometry" />
        </mxCell>
        <mxCell id="d7tN0gDncD4IV3u5tJZm-19" value="" style="endArrow=classic;html=1;exitX=0;exitY=1;exitDx=0;exitDy=0;entryX=0.982;entryY=0.296;entryDx=0;entryDy=0;entryPerimeter=0;" edge="1" parent="1" source="d7tN0gDncD4IV3u5tJZm-1" target="d7tN0gDncD4IV3u5tJZm-4">
          <mxGeometry width="50" height="50" relative="1" as="geometry">
            <mxPoint x="500" y="360" as="sourcePoint" />
            <mxPoint x="340" y="490" as="targetPoint" />
          </mxGeometry>
        </mxCell>
        <mxCell id="d7tN0gDncD4IV3u5tJZm-20" value="" style="endArrow=classic;html=1;exitX=0.662;exitY=0.029;exitDx=0;exitDy=0;exitPerimeter=0;entryX=0.019;entryY=0.665;entryDx=0;entryDy=0;entryPerimeter=0;" edge="1" parent="1" source="d7tN0gDncD4IV3u5tJZm-4" target="d7tN0gDncD4IV3u5tJZm-1">
          <mxGeometry width="50" height="50" relative="1" as="geometry">
            <mxPoint x="500" y="360" as="sourcePoint" />
            <mxPoint x="550" y="310" as="targetPoint" />
          </mxGeometry>
        </mxCell>
        <mxCell id="d7tN0gDncD4IV3u5tJZm-21" value="S3 = 0 and S1 and S5 = 1" style="text;html=1;strokeColor=none;fillColor=none;align=center;verticalAlign=middle;whiteSpace=wrap;rounded=0;rotation=-45;" vertex="1" parent="1">
          <mxGeometry x="360" y="445" width="150" height="20" as="geometry" />
        </mxCell>
        <mxCell id="d7tN0gDncD4IV3u5tJZm-22" value="S1 = S2 = S3 = S4 = S5 = 0" style="text;html=1;strokeColor=none;fillColor=none;align=center;verticalAlign=middle;whiteSpace=wrap;rounded=0;rotation=45;" vertex="1" parent="1">
          <mxGeometry x="600" y="425" width="160" height="20" as="geometry" />
        </mxCell>
        <mxCell id="d7tN0gDncD4IV3u5tJZm-23" value="" style="endArrow=classic;html=1;exitX=0.012;exitY=0.343;exitDx=0;exitDy=0;exitPerimeter=0;entryX=0.712;entryY=0.98;entryDx=0;entryDy=0;entryPerimeter=0;" edge="1" parent="1" source="d7tN0gDncD4IV3u5tJZm-5" target="d7tN0gDncD4IV3u5tJZm-1">
          <mxGeometry width="50" height="50" relative="1" as="geometry">
            <mxPoint x="500" y="350" as="sourcePoint" />
            <mxPoint x="550" y="300" as="targetPoint" />
          </mxGeometry>
        </mxCell>
        <mxCell id="d7tN0gDncD4IV3u5tJZm-24" value="" style="endArrow=classic;html=1;exitX=1;exitY=1;exitDx=0;exitDy=0;entryX=0;entryY=0;entryDx=0;entryDy=0;" edge="1" parent="1" source="d7tN0gDncD4IV3u5tJZm-1" target="d7tN0gDncD4IV3u5tJZm-5">
          <mxGeometry width="50" height="50" relative="1" as="geometry">
            <mxPoint x="500" y="350" as="sourcePoint" />
            <mxPoint x="550" y="300" as="targetPoint" />
          </mxGeometry>
        </mxCell>
        <mxCell id="d7tN0gDncD4IV3u5tJZm-26" value="" style="ellipse;html=1;shape=startState;fillColor=#000000;strokeColor=#ff0000;" vertex="1" parent="1">
          <mxGeometry x="540" y="160" width="30" height="30" as="geometry" />
        </mxCell>
        <mxCell id="d7tN0gDncD4IV3u5tJZm-27" value="" style="edgeStyle=orthogonalEdgeStyle;html=1;verticalAlign=bottom;endArrow=open;endSize=8;strokeColor=#ff0000;" edge="1" source="d7tN0gDncD4IV3u5tJZm-26" parent="1">
          <mxGeometry relative="1" as="geometry">
            <mxPoint x="555" y="250" as="targetPoint" />
          </mxGeometry>
        </mxCell>
      </root>
    </mxGraphModel>
  </diagram>
</mxfile>
